<?xml version="1.0" standalone="no"?>
<!DOCTYPE svg PUBLIC "-//W3C//DTD SVG 20010904//EN"
 "http://www.w3.org/TR/2001/REC-SVG-20010904/DTD/svg10.dtd">
<svg version="1.0" xmlns="http://www.w3.org/2000/svg"
 width="512.000000pt" height="512.000000pt" viewBox="0 0 512.000000 512.000000"
 preserveAspectRatio="xMidYMid meet">

<g transform="translate(0.000000,512.000000) scale(0.100000,-0.100000)"
fill="#000000" stroke="none">
<path d="M2511 4446 c-49 -27 -50 -39 -51 -384 0 -261 3 -328 14 -351 35 -66
137 -66 172 0 19 37 21 653 2 694 -22 48 -88 68 -137 41z"/>
<path d="M1324 4130 c-31 -12 -64 -59 -64 -90 0 -23 93 -193 287 -526 53 -89
95 -111 158 -82 30 13 55 55 55 90 0 31 -302 556 -340 591 -31 27 -58 33 -96
17z"/>
<path d="M3702 4114 c-39 -36 -342 -560 -342 -592 0 -35 25 -77 55 -90 63 -29
105 -7 158 82 199 341 287 503 287 527 0 40 -46 88 -91 95 -30 5 -41 2 -67
-22z"/>
<path d="M2320 3248 c-729 -67 -1539 -477 -2172 -1098 -181 -178 -184 -194
-70 -313 453 -472 1121 -888 1697 -1057 300 -87 484 -114 785 -114 242 0 365
13 580 60 630 140 1297 520 1831 1043 141 139 158 164 144 218 -8 33 -132 162
-291 302 -792 696 -1678 1036 -2504 959z m468 -212 c232 -50 459 -187 609
-365 368 -438 346 -1068 -52 -1476 -426 -437 -1115 -446 -1550 -20 -133 131
-213 255 -272 425 -45 126 -58 210 -58 360 0 150 13 234 58 360 59 171 139
296 272 425 169 165 376 268 611 305 82 12 294 5 382 -14z m-1199 -213 c-144
-157 -255 -381 -305 -613 -26 -119 -26 -381 0 -500 50 -232 161 -456 305 -612
29 -32 48 -58 43 -58 -22 0 -232 94 -366 163 -335 174 -656 405 -961 691 l-70
66 85 80 c285 270 657 534 980 696 114 57 310 143 329 143 7 1 -11 -25 -40
-56z m2006 16 c417 -173 845 -459 1220 -813 l70 -66 -70 -66 c-322 -304 -656
-540 -1021 -722 -106 -53 -289 -132 -306 -132 -6 0 13 26 42 57 105 115 211
297 263 453 48 146 61 233 61 410 0 177 -13 264 -61 410 -53 159 -157 337
-262 453 -29 31 -49 57 -43 57 5 0 54 -18 107 -41z"/>
<path d="M2443 2446 c-219 -53 -383 -261 -383 -486 0 -270 230 -500 500 -500
270 0 500 230 500 500 0 274 -233 503 -508 499 -31 0 -80 -6 -109 -13z"/>
</g>
</svg>
