<?xml version="1.0" standalone="no"?>
<!DOCTYPE svg PUBLIC "-//W3C//DTD SVG 20010904//EN"
 "http://www.w3.org/TR/2001/REC-SVG-20010904/DTD/svg10.dtd">
<svg version="1.0" xmlns="http://www.w3.org/2000/svg"
 width="512.000000pt" height="512.000000pt" viewBox="0 0 512.000000 512.000000"
 preserveAspectRatio="xMidYMid meet">

<g transform="translate(0.000000,512.000000) scale(0.100000,-0.100000)"
fill="#000000" stroke="none">
<path d="M84 3831 c-64 -29 -84 -62 -84 -140 0 -46 5 -74 16 -90 21 -30 1085
-880 1179 -942 120 -79 151 -97 272 -158 482 -240 999 -315 1528 -221 361 64
733 226 1020 443 193 147 1052 851 1073 880 16 23 22 46 22 83 0 117 -122 199
-220 147 -19 -11 -253 -197 -520 -414 -267 -217 -519 -420 -560 -451 -546
-401 -1269 -513 -1925 -297 -145 48 -366 156 -492 239 -51 34 -331 253 -624
487 -292 234 -547 431 -565 439 -44 18 -71 17 -120 -5z"/>
<path d="M1055 2221 c-25 -12 -108 -88 -222 -202 -194 -198 -204 -213 -189
-295 9 -47 73 -111 120 -120 83 -15 97 -6 298 194 200 198 227 236 214 304
-10 54 -43 98 -89 118 -53 24 -81 25 -132 1z"/>
<path d="M3933 2220 c-46 -20 -79 -64 -89 -118 -13 -68 14 -106 214 -304 201
-200 215 -209 298 -194 47 9 111 73 120 120 15 82 5 97 -189 295 -224 226
-258 245 -354 201z"/>
<path d="M2975 1906 c-58 -26 -95 -85 -95 -151 0 -50 337 -722 379 -758 55
-46 142 -48 196 -5 33 26 64 91 65 135 0 39 -335 717 -371 750 -47 43 -116 54
-174 29z"/>
<path d="M2015 1891 c-11 -5 -30 -19 -43 -31 -35 -33 -372 -715 -372 -752 0
-43 35 -112 67 -133 19 -13 42 -16 92 -13 111 6 108 1 306 399 117 233 175
359 175 381 0 42 -34 108 -67 133 -30 21 -124 31 -158 16z"/>
</g>
</svg>
